<svg id="Layer_1" xmlns="http://www.w3.org/2000/svg" xmlns:xlink="http://www.w3.org/1999/xlink" viewBox="0 0 559 88"><style>.st0,.st1clip-path:url(#SVGID_2_);fill: black;f}.st1{clip-path:url(#SVGID_4_)}.st3{clip-path:url(#SVGID_6_);fill:#f58426}</style><defs><path id="SVGID_1_" d="M0 0h559v88H0z"/></defs><clipPath id="SVGID_2_"><use xlink:href="#SVGID_1_" overflow="visible"/></clipPath><path class="st0" d="M173 47.9l.2-1c.5-2.4-.1-4.3-2.1-4.3-2.2 0-3.6 1.7-4 3.5-1.7 7.9 16.1 4 13 18.6-1.8 8.5-7.6 12.3-16.8 12.3-8.6 0-12.8-3-11-11.3l.3-1.4h10.1l-.2 1c-.7 3.4.4 4.6 2.5 4.6s3.7-1.7 4.1-3.9c1.7-7.9-15.5-4-12.5-18.1 1.7-8.1 7-12.5 15.8-12.5 9.1 0 12.1 3.8 10.3 12.3H173M198.8 36.3l-6.2 28.8c-.8 3.9.2 4.9 2.1 4.9s3.4-1 4.1-4.9l6.2-28.8h10.4l-5.6 26.2c-2.4 11.2-7.9 14.6-16.6 14.6-8.7 0-12.8-3.4-10.5-14.6l5.6-26.2h10.5M219 36.3h14.9l-.8 23.7h.1l9.2-23.7h14.9l-8.5 40h-9.7l6.3-29.8h-.1l-11.9 29.8h-7.5l.8-29.8h-.1l-6.3 29.8h-9.8l8.5-40M260.4 36.3h14.9l-.9 23.7h.1l9.3-23.7h14.9l-8.5 40h-9.8l6.3-29.8h-.1l-11.8 29.8h-7.5l.7-29.8h-.1l-6.3 29.8h-9.7l8.5-40M302.3 36.3h10.4l-8.5 40h-10.5l8.6-40M320.6 45.2h-7.9l1.9-8.9h26.1l-1.9 8.9H331l-6.6 31.1H314l6.6-31.1M354.6 36.3h15.7c7.4 0 10.1 4 8.8 10-.9 4.3-3.6 8.1-8.2 9l-.1.1c5.2.5 6.4 5 5.5 9.1-1.5 6.9-5.9 11.8-14.6 11.8H346l8.6-40m3.5 32.5h2.9c1.9 0 4.1-1.7 4.8-4.9.7-3.1-.8-4.8-2.7-4.8h-2.9l-2.1 9.7zm3.6-16.8h2.5c2.1 0 3.7-1.9 4.2-4 .4-2.2-.3-4.1-2.5-4.1h-2.5l-1.7 8.1zM384.9 36.3h10.4l-8.5 40h-10.4l8.5-40M412.7 48.5c1-4.5.4-5.9-1.6-5.9-3.2 0-4.1 2.9-6.4 13.7-2.4 10.8-2.7 13.7.5 13.7 2.6 0 3.6-2.2 5.2-9.8h10.1l-.6 3c-2.4 11.2-9.5 13.9-16.2 13.9-11.7 0-13-5.9-9.9-20.8 3.2-15.3 7.9-20.8 18.7-20.8 9.4 0 11.9 4.9 10.2 12.7l-.6 2.5H412l.7-2.2M428.9 60.6l-5.1-24.3h11.5l.9 14h.1l6.9-14h11.4l-15.3 24.3-3.4 15.7h-10.4l3.4-15.7"/><path class="st0" d="M466.8 48.5c1-4.5.4-5.9-1.6-5.9-3.2 0-4.1 2.9-6.4 13.7-2.3 10.8-2.6 13.7.6 13.7 2.6 0 3.6-2.2 5.2-9.8h10.1l-.6 3c-2.4 11.2-9.5 13.9-16.2 13.9-11.7 0-13-5.9-9.9-20.8 3.2-15.3 7.9-20.8 18.7-20.8 9.4 0 11.9 4.9 10.2 12.7l-.6 2.5h-10.1l.6-2.2M482.4 36.3h10.4l-6.7 31.5h12.8l-1.8 8.5h-23.2l8.5-40"/><g><defs><path id="SVGID_3_" d="M0 .8h558.6V88H0z"/></defs><clipPath id="SVGID_4_"><use xlink:href="#SVGID_3_" overflow="visible"/></clipPath><path class="st1" d="M507.8 36.3h23.7l-1.9 8.5h-13.3l-1.4 6.9h12.5l-1.8 8.2h-12.5l-1.6 7.9h13.7l-1.7 8.5h-24.2l8.5-40M548.3 47.9l.2-1c.5-2.4-.1-4.3-2.1-4.3-2.2 0-3.6 1.7-4 3.5-1.7 7.9 16.1 4 13 18.6-1.8 8.5-7.6 12.3-16.8 12.3-8.6 0-12.8-3-11-11.3l.3-1.4H538l-.2 1c-.7 3.4.4 4.6 2.5 4.6s3.7-1.7 4.1-3.9c1.7-7.9-15.5-4-12.5-18.1 1.7-8.1 7-12.5 15.8-12.5 9.1 0 12.1 3.8 10.3 12.3h-9.7M138.5 86.6L93 8.6c-.2-.3-.4-.4-.7-.5-.3 0-.6.1-.8.4l-4.2 5.6-10-13c-.2-.2-.4-.4-.7-.4-.3 0-.6.1-.7.4L61.7 20.5l-4.3-4.3c-.2-.1-.4-.2-.7-.2-.3 0-.5.1-.7.3L.2 86.4c-.2.3-.3.6-.1 1 .2.3.5.5.8.5l136.8.1c.3 0 .6-.2.8-.5.1-.2.1-.6 0-.9M4.1 85.2l53-66.4 4.2 4.2c.2.2.4.3.7.3.3 0 .5-.2.7-.4L76.5 4l9.8 12.7c.2.2.4.3.7.3.3 0 .5-.1.7-.4l4-5.4 43.1 74H4.1z"/><path class="st1" d="M89.2 33.5c-3.4-3.2-9.4-2.4-13.3 1.8s-4.3 10.2-.8 13.4c3.4 3.2 9.4 2.4 13.3-1.8 3.9-4.2 4.2-10.2.8-13.4m-1.9 12.3c-3.3 3.5-8.2 4.2-11 1.6-2.8-2.6-2.5-7.6.8-11.1s8.2-4.2 11-1.6c2.8 2.6 2.5 7.6-.8 11.1zM102.5 62.8c-4.3-5.6-13.5-5.7-20.6-.3-7.1 5.4-9.3 14.4-5 20 4.3 5.6 13.5 5.7 20.6.3 7.1-5.4 9.3-14.4 5-20m-6 18.8c-6.2 4.8-14.2 4.7-18-.2-3.8-4.9-1.8-12.7 4.4-17.5 6.2-4.8 14.2-4.7 18 .2 3.8 4.9 1.8 12.7-4.4 17.5zM61.8 62.8c-4.3-5.6-13.5-5.7-20.6-.3-7.1 5.4-9.3 14.4-5 20 4.3 5.6 13.5 5.7 20.6.3 7-5.4 9.3-14.4 5-20m-6 18.8c-6.2 4.8-14.2 4.7-18-.2-3.8-5-1.8-12.8 4.3-17.5 6.2-4.8 14.2-4.7 18 .2s1.8 12.7-4.3 17.5z"/></g><g><defs><path id="SVGID_5_" d="M0 0h559v88H0z"/></defs><clipPath id="SVGID_6_"><use xlink:href="#SVGID_5_" overflow="visible"/></clipPath><path d="M90.9 74.1c-.6.4-2.1.6-3.3-1.3-.4-.8-14-22.5-14.6-23-.7-.6-4.8-.4-6.6-.3-1 .1-4.7.7-5.5 1.2-1 .6-2.1 1.5-1.9 2.3.2 1.3 4.1 1.2 7.5 1.7 2.5.4 7.3 1.7 8.5 3.4 1.1 1.4.6 3.7-1.1 5.1-.8.7-3.7 2.8-5.1 3.6-1.4.8-7.2 3.5-10.3 4.5-3.1 1-6.5 1.6-7.5 1.9-1 .3-2.5 0-3.1-1.6-.4-1.3.8-2.8 2-3.1.7-.2 8.6-2.5 11.3-3.5 2.8-.9 8.1-3 8-4.3-.1-1-4.3-1.6-5.4-1.8-1.1-.2-7.8-.8-10-1.4-2.1-.6-4-2.2-3.4-5.2.6-3 3.3-5 5-5.9 2.8-1.5 7.9-2.3 11.8-2.6 2.5-.2 7.2-.1 8.2.8.9.9 2.4 3.4 2.4 3.4L91 69.5s.5 1.2.8 1.6c.9 1.3-.2 2.6-.9 3" clip-path="url(#SVGID_6_)" fill="#fff"/><path class="st3" d="M48.7 52.4c.1-.4.2-.8.3-1.1H9.5l-3.7 4.5h43.5c-.6-.9-.9-2-.6-3.4M53.1 46.4c1.9-1 3.4-1.7 6.3-2.2H15.2l-3.7 4.5h38.9c1.1-1 1.8-1.8 2.7-2.3M73 37.3H21l-3.7 4.5h54.3c.2-1.5.6-3 1.4-4.5"/></g></svg>